# Blender v2.81 (sub 16) OBJ File: ''
# www.blender.org
mtllib cube1.mtl
o cube.000
v 0.923089 1.098138 -0.946827
v 0.923089 -0.901862 -0.946828
v -1.076911 -0.901862 -0.946828
v -1.076911 1.098138 -0.946827
v -1.076911 -0.901863 1.053172
v -1.076911 1.098137 1.053173
v 0.923089 -0.901863 1.053172
v 0.923088 1.098137 1.053174
vt 0.252190 0.253255
vt 0.252155 0.494981
vt 0.001538 0.495406
vt 0.002529 0.253065
vt 0.750564 0.497106
vt 0.751341 0.252425
vt 0.998309 0.253065
vt 0.997885 0.497803
vt 0.493936 0.496231
vt 0.494775 0.253274
vt 0.251958 0.002839
vt 0.494509 0.002350
vt 0.494359 0.747066
vt 0.255360 0.746569
vn 0.0000 0.0000 -1.0000
vn -1.0000 0.0000 0.0000
vn 0.0000 -0.0000 1.0000
vn 1.0000 0.0000 0.0000
vn 0.0000 1.0000 0.0000
vn 0.0000 -1.0000 -0.0000
usemtl Material_ray.png.000
s 1
f 1/1/1 2/2/1 3/3/1
f 1/1/1 3/3/1 4/4/1
f 5/5/2 6/6/2 4/7/2
f 5/5/2 4/7/2 3/8/2
f 7/9/3 8/10/3 5/5/3
f 8/10/3 6/6/3 5/5/3
f 2/2/4 1/1/4 7/9/4
f 1/1/4 8/10/4 7/9/4
f 1/1/5 4/11/5 8/10/5
f 4/11/5 6/12/5 8/10/5
f 2/2/6 7/9/6 5/13/6
f 2/2/6 5/13/6 3/14/6
