# Blender v2.79 (sub 0) OBJ File: ''
# www.blender.org

v  -16.799999237061 0.000000000000 -16.799999237061
v  -16.799999237061 0.000000000000 16.799999237061
v  16.799999237061 0.000000000000 -16.799999237061
v  16.799999237061 0.000000000000 16.799999237061
# 4 vertices

vn 0.000000000000 1.000000000000 -0.000000000000
# 1 vertex normals

vt 0.000000000000 1.000000000000 0.000000000000
vt 0.000000000000 0.000000000000 0.000000000000
vt 1.000000000000 1.000000000000 0.000000000000
vt 1.000000000000 0.000000000000 0.000000000000
# 4 texture coords

o Plane001
g Plane001
f 1/1/1 2/2/1 3/3/1 
f 4/4/1 3/3/1 2/2/1 
# 2 faces

