# Blender v2.79 (sub 0) OBJ File: ''
# www.blender.org
mtllib untitled.mtl
o Cube_Cube.003
v -23.564795 -17.949997 26.929081
v -23.564795 26.408714 26.929081
v -23.564795 -17.949997 -17.429628
v -23.564795 26.408714 -17.429628
v 20.793917 -17.949997 26.929081
v 20.793917 26.408714 26.929081
v 20.793917 -17.949997 -17.429628
v 20.793917 26.408714 -17.429628
vt 0.750902 0.333720
vt 0.999271 0.665305
vt 0.999671 0.333931
vt 0.499654 0.333921
vt 0.750821 0.665609
vt 0.499627 0.666054
vt 0.250323 0.333818
vt 0.000208 0.333691
vt 0.250617 0.666211
vt 0.250374 0.000317
vt 0.499568 0.000469
vt 0.499839 0.999791
vt 0.000142 0.665507
vt 0.250166 0.999792
vn 1.0000 0.0000 0.0000
vn 0.0000 0.0000 1.0000
vn -1.0000 0.0000 0.0000
vn 0.0000 0.0000 -1.0000
vn 0.0000 1.0000 0.0000
vn 0.0000 -1.0000 0.0000
usemtl None
s off
f 3/1/1 2/2/1 1/3/1
f 7/4/2 4/5/2 3/1/2
f 8/6/3 7/4/3 5/7/3
f 1/8/4 6/9/4 5/7/4
f 1/10/5 7/4/5 3/11/5
f 4/12/6 8/6/6 6/9/6
f 3/1/1 4/5/1 2/2/1
f 7/4/2 8/6/2 4/5/2
f 8/6/3 5/7/3 6/9/3
f 1/8/4 2/13/4 6/9/4
f 1/10/5 5/7/5 7/4/5
f 4/12/6 6/9/6 2/14/6
